<svg xmlns="http://www.w3.org/2000/svg"
     viewBox="0 0 24 24"
     class="logo"
     height="32"
     role="img"
     aria-label="Spotify">
  <title>Spotify</title>
  <path fill="#000000" d="M12 0C5.373 0 0 5.373 0 12c0 6.627 5.373 12 
   12 12s12-5.373 12-12C24 5.373 18.627 0 12 0zm5.513 17.297a.747.747 
   0 0 1-1.027.248c-2.811-1.718-6.356-2.108-10.532-1.161a.747.747 0 
   1 1-.322-1.459c4.577-1.01 8.506-.564 11.618 1.326a.747.747 0 0 
   1 .263 1.046zm1.467-3.252a.934.934 0 0 1-1.282.31c-3.223-1.98-8.135-2.557-11.93-1.406a.934.934 0 1 1-.552-1.786c4.317-1.335 
   9.74-.696 13.404 1.574a.934.934 0 0 1 .36 1.308zm.126-3.444c-3.664-2.174-9.307-2.374-12.66-1.3a1.12 1.12 0 0 
   1-.662-2.14c3.915-1.212 10.133-.982 14.328 1.466a1.12 1.12 0 0 
   1-1.006 1.974z"/>
</svg>
